<svg id="Capa_1" data-name="Capa 1" xmlns="http://www.w3.org/2000/svg" viewBox="0 0 913.82 1046.51"><defs><style>.cls-1{fill:#295597;}.cls-2{fill:#a5a4a4;}.cls-3{fill:#fefefe;}.cls-4{fill:#969696;}.cls-5{fill:#a4a2a3;}.cls-6{fill:#686667;}</style></defs><title>icon-word</title><path class="cls-1" d="M199.83,909.17c-33.54-4.28-67.05-8.84-100.65-12.68C87.5,895.15,81.85,892,81.9,878.09q.84-235,0-470.08c-.05-13.87,5.59-17.06,17.28-18.39,33.59-3.85,67.1-8.41,100.64-12.69,6.69-4.71,14.57-6.29,22.21-8.52,32.21-5.43,64.49-10.25,97.19-11.64,53-8.12,106.16-14.41,159.3-21.12,18.73-2.36,31.43,1.94,31.38,23.78.92,18.67.71,37.34.21,56,.47,14.38.51,28.77,0,43.15.53,18.73.58,37.45,0,56.17.47,14.4.51,28.79,0,43.18.53,18.72.58,37.44,0,56.17.47,14.39.51,28.78,0,43.17.53,18.72.58,37.45,0,56.17.47,14.39.51,28.78,0,43.17.53,18.73.58,37.46,0,56.18.48,14.4.51,28.8,0,43.2.54,18.7.6,37.41,0,56.11-.16,37.93-2.51,39.51-40.1,36.32-56.3-4.78-112-14-168.21-19.67-26.67-3.63-53.51-6.11-80-11.13C214.24,915.46,206.44,913.85,199.83,909.17Z" transform="translate(-81.9 -13.3)"/><path class="cls-2" d="M199.83,909.17c6.7-.18,13.6-2,19.72,2.45,5.95,32,1.5,64.4,2.75,96.59,1,26.23,2.77,29.09,28.29,29.12q347.36.51,694.7.05c26.28,0,28.06-2.48,28.08-33.86q.18-346.15.07-692.33c0-14.18-.19-28.36.32-42.48.52-6.22,1-12.49-1.81-18.41-2.53-5.92-7-10.4-11.41-14.85Q866.36,141.19,772.11,47c-3.9-3.9-8-7.6-13.08-9.92-5.88-2.82-12.07-2.35-18.3-1.9-155.86,1-311.67.22-467.48.47-7.08,0-14.17-.1-21.25,0-27.45.55-29.52,2.21-29.6,29.79q-.41,139.29-.06,278.57c0,10.24.28,20.47-2.78,30.41-6.12,4.5-13,2.63-19.74,2.45.23-111.9.94-223.79.26-335.69-.12-20.47,3.69-28.08,26.58-27.94,172.58,1.08,345.16.76,517.75.28,14.64,0,24.89,4.25,35.14,14.62Q880.07,130,981.81,230.49c9.75,9.65,13.72,19.42,13.7,33.14q-.54,386.54.2,773.08c.06,19.7-6.65,23-24.24,23q-373.54-.74-747.08.14c-20.43.06-24.86-6.36-24.32-25.37C201.26,992.72,200.06,950.93,199.83,909.17Z" transform="translate(-81.9 -13.3)"/><path class="cls-3" d="M980.88,260.38q.07,381.81.49,763.62c0,16.1-3.85,21.54-20.84,21.5q-362.89-.78-725.79-.08c-15,0-20.94-3.5-20.37-19.56,1.14-32.27.28-64.61.39-96.92,0-6.12-1.39-12.83,4.8-17.32L299.7,922.4c7.59,22.86,24.88,25.63,46.4,25.72,168.41.64,336.81-1,505.21-.4,8.65,0,17.33.38,25.87-1.62,6.33-1.48,9.2-5.48,9.21-11.81s-2.79-10.51-8.94-12.19c-8.47-2.33-17.18-1.86-25.83-1.86q-154.75-.07-309.52-.15c-13.12,0-27.08,2.48-38.25-7.8v-56c11.16-10.28,25.11-7.8,38.23-7.83q154.68-.33,309.36-.14c8.64,0,17.33.4,25.84-1.75,6.21-1.57,9.16-5.72,9.16-12s-3-10.41-9.16-12c-8.5-2.15-17.2-1.75-25.84-1.75-103.12,0-206.24.08-309.36-.15-13.12,0-27.07,2.46-38.23-7.82V757c11.16-10.27,25.11-7.79,38.23-7.82q154.68-.33,309.36-.14c8.64,0,17.33.4,25.84-1.75,6.21-1.57,9.16-5.72,9.16-12s-3-10.41-9.16-12c-8.5-2.14-17.2-1.74-25.84-1.75-103.12,0-206.24.09-309.36-.14-13.12,0-27.07,2.46-38.23-7.82v-56c11.16-10.27,25.11-7.79,38.23-7.82q154.68-.33,309.36-.14c8.64,0,17.33.39,25.84-1.75,6.21-1.57,9.16-5.72,9.16-12s-3-10.4-9.16-12c-8.5-2.15-17.2-1.74-25.84-1.75q-154.68-.06-309.36-.14c-13.12,0-27.07,2.45-38.23-7.82v-56C515,548,529,550.51,542.08,550.48c103.12-.23,206.24-.1,309.36-.15,8.64,0,17.33.4,25.84-1.75,6.21-1.56,9.16-5.71,9.16-12s-3-10.4-9.16-12c-8.5-2.15-17.2-1.74-25.84-1.75q-154.68-.06-309.36-.14c-13.12,0-27.07,2.45-38.23-7.82V459c11.15-10.28,25.11-7.8,38.23-7.82,103.12-.23,206.24-.1,309.36-.15,8.64,0,17.33.4,25.84-1.75,6.21-1.57,9.16-5.71,9.16-12s-3-10.4-9.16-12c-8.5-2.15-17.2-1.75-25.84-1.75-103.12-.05-206.24.08-309.36-.14-13.12,0-27.07,2.45-38.23-7.83v-56c11.17-10.27,25.12-7.71,38.22-7.74,103.86-.22,207.72.13,311.57-.44,11.89-.06,31.49,6.19,32-13.37.55-20.52-19.34-13.61-30.87-13.64q-256.1-.72-512.2-.33c-3.93,0-7.87-.09-11.79.18-23.2,1.59-27,8.91-15.29,30.1,1.54,2.8,3.08,5.43,3,8.71l-98.93,11.39c-7.47-6.05-4.74-14.51-4.75-22-.17-100.73.29-201.46-.5-302.18-.14-17.34,4.14-22.7,22.15-22.62,170.76.75,341.52.53,512.28.59,12.67,29.89,10.71,60,1.23,90.18-11.67,9-25.49,7-38.69,7q-180.87.3-361.76.13c-8.66,0-17.34-.31-26,.8-7.61,1-13.87,3.43-14.14,12.65s5.68,12.1,13.43,13.14c8.63,1.17,17.31.83,26,.83q179.7,0,359.4.1c13.27,0,26.92-1.81,39.4,5,13.81,18,9.26,37.56,5,57.12a14.9,14.9,0,0,1-6.61,6.15c-12.1,4.7-24.81,3.43-37.32,3.44-121.89.12-243.79-.17-365.68.43-11.73.06-31.87-7.13-32.52,12.25-.73,22,20.69,14.39,32.82,14.48,135.25,1,270.51-.35,405.77.95,48.78-.09,97.55-.2,146.31.12,19.69-.28,39.38-.12,59.07-.14C964,252.85,973.44,253,980.88,260.38Z" transform="translate(-81.9 -13.3)"/><path class="cls-4" d="M318.5,363.82c-23.9,0-18.75-7.49-19.17-35-.2-13,15.49-11.16,22.95-11.19q181.79-.56,363.58-.26c63.74,0,127.5.77,191.22-.46,19.41-.38,18.72,9.24,19.2,23,.53,14.89-3.31,20.42-19.43,20.35-124.33-.5-248.67-.08-373,.05,1.69-17.73-6.42-20.31-22.66-17.9C427.08,350.47,372.74,356.83,318.5,363.82Z" transform="translate(-81.9 -13.3)"/><path class="cls-3" d="M290.67,612.42c-7.88,37.5-17,74.79-23.05,112.58C265,741.49,257.23,742.57,244,742.77c-13.59.21-21.41-2.36-24.22-17.69-10.07-54.9-21.56-109.53-32.15-164.32-1.3-6.72-6.26-17.94,7.61-16.55,10.32,1,26.18-9.46,29.27,12.32,5.74,40.43,12.79,80.66,22.36,121.19C255,638.89,264,600.21,270.94,561.16c2.69-15.17,9.25-18.44,23.43-18.73,14.61-.3,20.6,4.24,23,18.61,6.49,39.2,14.29,78.17,24.62,117.22,6.46-39.5,14.29-78.84,18.86-118.55,2.62-22.83,17.82-16.05,29.34-15.55,18.21.8,7.15,13.92,5.84,20.7-10.47,54-22.83,107.67-32.41,161.82-3,17-11.72,16.36-24.16,16.77-13.45.45-21.27-1.74-23.84-17.49-6.18-37.89-14.43-75.45-21.85-113.13Z" transform="translate(-81.9 -13.3)"/><path class="cls-4" d="M503.85,912.29q184.11.19,368.22.41c21.73,0,31.75,16.09,23.33,36.43-4,9.63-12,5.86-18.24,5.93-39.33.41-78.68.21-118,.21H331.9c-31.84,0-31.84,0-32.2-32.87q85,9.58,170.06,19.2C502.55,945.36,502.54,945.48,503.85,912.29Z" transform="translate(-81.9 -13.3)"/><path class="cls-4" d="M503.85,415.58c122.79.14,245.59.58,368.39.05,17.5-.07,24.37,3.12,24.49,22.82.13,20.55-9.72,20.32-24.49,20.3-122.8-.2-245.6.08-368.4.21Q503.86,437.27,503.85,415.58Z" transform="translate(-81.9 -13.3)"/><path class="cls-4" d="M503.85,514.93c122.79.13,245.59.58,368.39,0,17.5-.07,24.37,3.12,24.49,22.82.13,20.55-9.72,20.32-24.49,20.3-122.8-.2-245.6.08-368.4.21Q503.86,536.61,503.85,514.93Z" transform="translate(-81.9 -13.3)"/><path class="cls-4" d="M503.85,614.27c122.79.13,245.59.58,368.39,0,17.5-.07,24.37,3.12,24.49,22.82.13,20.55-9.72,20.32-24.49,20.3-122.8-.2-245.6.08-368.4.21Q503.86,635.95,503.85,614.27Z" transform="translate(-81.9 -13.3)"/><path class="cls-4" d="M503.85,713.61c122.79.13,245.59.58,368.39,0,17.5-.08,24.37,3.11,24.49,22.81.13,20.55-9.72,20.32-24.49,20.3-122.8-.2-245.6.08-368.4.22Q503.86,735.3,503.85,713.61Z" transform="translate(-81.9 -13.3)"/><path class="cls-4" d="M503.85,813c122.79.13,245.59.58,368.39,0,17.5-.08,24.37,3.12,24.49,22.81.13,20.56-9.72,20.33-24.49,20.3q-184.2-.29-368.4.22Q503.86,834.64,503.85,813Z" transform="translate(-81.9 -13.3)"/><path class="cls-3" d="M763.9,33.55q108.72,103,211.68,211.68c-15,12.78-33,5.91-49.73,7.33-10.12.86-20.38.18-30.58,0q-52.89.54-105.77.07c-27.5-.27-31.35-4.55-32.86-33.4-.23-19.31-.4-38.62,0-57.93q-.4-22.09,0-44.18c-.4-19.29-.29-38.57-.13-57.84C756.58,50.08,755.91,40.53,763.9,33.55Z" transform="translate(-81.9 -13.3)"/><path class="cls-5" d="M763.9,33.55l-1.11,84.8c-2.87,3-6.35,3.5-10.2,2.57a6.77,6.77,0,0,1-3.83-3.74q0-44.46,0-88.92C754.44,28.17,760.39,27.36,763.9,33.55Z" transform="translate(-81.9 -13.3)"/><path class="cls-5" d="M895.51,246.35l80.07-1.12c6.19,3.51,5.38,9.46,5.3,15.15l-85.37-1.17Q890.38,252.79,895.51,246.35Z" transform="translate(-81.9 -13.3)"/><path class="cls-4" d="M748.74,161.3c-141-.26-281.92,1.52-422.86-.77-25.95-.42-26,.17-25.95-30.09,0-13.13,13.89-12.2,21.26-12.22,99.22-.38,198.45-.18,297.68-.3,43.3,0,86.59-.48,129.89-.74l1.12,1.83c8.27,11.47,5.65,24,3.54,36.45A12,12,0,0,1,748.74,161.3Z" transform="translate(-81.9 -13.3)"/><path class="cls-4" d="M749.57,259.16c-143.93.24-287.86.15-431.79,1.13-18,.12-17.67-8.51-18.28-21.49-.73-15.46,2.64-22,20.25-21.89,139.22.71,278.45.39,417.67.39,3.93,0,7.86,0,11.8-.05C759.05,231.14,758.69,245.12,749.57,259.16Z" transform="translate(-81.9 -13.3)"/><path class="cls-6" d="M749.57,259.16q-.18-21-.35-41.91l-.15-.12c4.73-3.47,9.33-3.87,13.72.58-4,23.94,6.58,29.87,29.53,28.55,34.28-2,68.78-.13,103.19.09v12.86Z" transform="translate(-81.9 -13.3)"/><path class="cls-5" d="M762.79,217.71l-13.72-.58-.33-55.83,1.14-1.82c4.48-3.32,8.76-2.56,12.91.66Z" transform="translate(-81.9 -13.3)"/><path class="cls-6" d="M762.79,160.14l-12.91-.65V119l12.91-.66Z" transform="translate(-81.9 -13.3)"/></svg>