<svg id="Capa_1" data-name="Capa 1" xmlns="http://www.w3.org/2000/svg" viewBox="0 0 979.71 979"><defs><style>.cls-1{fill:#179ad5;}.cls-2{fill:#0a95d0;}.cls-3{fill:#fefefe;}.cls-4{fill:#f6fafa;}</style></defs><title>user-default</title><path class="cls-1" d="M540.39,15A385.9,385.9,0,0,1,645.15,33.87C825.54,93.51,940.79,215.27,982.8,400.66c60,264.7-116.35,530.72-382.21,582.14-215,41.59-425.58-58.09-528.9-251.4C24.78,643.63,7,549.55,17.93,450.61,40.72,243.92,186.67,77.25,388.06,27.15c45.14-11.22,91-15.38,137.49-13.61a65.68,65.68,0,0,1,7.2,1c-1,1.17-2.4,1-3.73,1-4.86,0-9.71.05-14.55.1C523.11,15.09,531.76,16.55,540.39,15Z" transform="translate(-14.82 -13.15)"/><path class="cls-2" d="M518.45,15c-9.1,3.28-18.35.63-27.56-.38h19.92Z" transform="translate(-14.82 -13.15)"/><path class="cls-3" d="M617.6,489.63c32.17,20.15,57,47.55,77.71,79,24.34,37,40.47,77.42,49.73,120.61,9.75,45.44-24.32,87.59-71.18,87.68q-145.59.3-291.19,0c-20.35-.05-40.84,2.12-61-1.41-37.81-6.61-65.35-44.18-57.73-81.79C279.07,618.86,312.42,553.84,371.83,504a243.25,243.25,0,0,1,30-21c3.11-1.9,5.46-2.24,8.83-.15,56.57,35.16,114.79,37.61,174.51,8.44a2.13,2.13,0,0,1,.81-.06c1.86-1.53,11-5.71,11.64-6.61C606.11,479.81,604.3,481.38,617.6,489.63Z" transform="translate(-14.82 -13.15)"/><path class="cls-3" d="M654.25,339.81c-1,83.93-68.69,149.64-152.92,148.46-80.45-1.13-146.9-69-146.24-149.44.69-84.33,68.49-150.54,152.93-149.34C588.73,190.64,655.22,259,654.25,339.81Z" transform="translate(-14.82 -13.15)"/><path class="cls-4" d="M520.47,501.29c-4.79,2.16-10.72,2.54-14.05-.37s-3.65-3.85-6.22.4-7,5.3-11.33,1.52c1.78-1.2,3.49-2.5,5.33-3.6C507.4,491.33,507.41,491.34,520.47,501.29Z" transform="translate(-14.82 -13.15)"/></svg>