<svg id="Capa_1" data-name="Capa 1" xmlns="http://www.w3.org/2000/svg" viewBox="0 0 1875.83 694.03"><defs><style>.cls-1{fill:#285592;}.cls-2{fill:#fff;}.cls-3{fill:#f69532;}.cls-4{fill:#f69531;}.cls-5{fill:#fefefd;}</style></defs><title>LogoCea</title><ellipse class="cls-1" cx="547.75" cy="347.02" rx="547.51" ry="347.02"/><path class="cls-2" d="M915.45,277.72A243.7,243.7,0,0,0,843,286c-8.7,2.29-11.1.11-10.84-8.54.38-12.59,0-25.23-.52-37.84-.2-5.48,1.08-8.62,7.1-10,52-12,104.38-16.77,156.92-4.93,35.23,7.94,49.23,26.87,51.54,63.77,1.19,19-1.35,37.82-2.75,56.65-3.8,51.14,1,101.5,12.62,151.25,2.08,8.89.83,11.34-8.53,11.07a264.84,264.84,0,0,0-37.77,1.67c-9.59,1.09-14.53-2.61-14.81-11.53-.44-14.07-5.65-9.55-13.14-4.68-32.83,21.33-69.07,26.76-106.46,17.43-51.15-12.77-71.89-65.73-45.26-112.62,17.53-30.88,46.63-44.49,79.71-51.57a315.77,315.77,0,0,1,68-7.39c7.61.05,10.1-2.26,10.18-10.07.39-34.31-11.1-47.44-46.34-50.8C933.65,277,924.51,277.72,915.45,277.72Z" transform="translate(-22.09 -11)"/><path class="cls-2" d="M677.3,514.67c-33.43-.62-63-14.92-87.75-40.42-60.93-62.93-53.93-174.61,14.42-228.7,49.93-39.51,119.29-35.85,164.69,9,8.66,8.55,21.55,17.31,23,27.35,1.36,9.39-13.17,17.88-20.93,26.54-38.91,43.46-77.83,86.91-117.24,129.91-7.52,8.21-4.89,10.77,3.74,13.65q34.2,11.41,64.39-7.93c5.58-3.58,10.41-8.39,15.33-12.91,7.17-6.57,12.62-20.15,20.46-19.28,7.4.82,13.57,13,20.2,20.3,17.13,18.81,17,18.7-.25,37.64C751.13,498.65,719.28,515,677.3,514.67Z" transform="translate(-22.09 -11)"/><path class="cls-2" d="M284.83,369.52c0-68.45,36.51-125.29,91.85-144.19,50.07-17.1,93.78-4.76,131.17,31.63,7.85,7.64,19.14,15.78,20.47,24.91,1.25,8.63-11.88,16.14-18.68,24.11-15.4,18-15.6,17.87-31.54.64-25.8-27.9-55-36.45-85.86-25.13-31.07,11.42-53.68,43.93-55.05,78.64-1.17,29.59,7.95,55,29.68,75.48a74.1,74.1,0,0,0,103.49-1.38c1.12-1.11,2.18-2.27,3.32-3.36,7.07-6.77,12.87-20.05,20.72-19.27,7.28.71,13.48,13,20,20.32,16.49,18.4,16.32,18.3,2.44,34.25-34.12,39.2-76.5,57.05-127.7,44.58-52.57-12.81-83.41-49.45-98.66-100.08C286.18,396.3,284.2,381.43,284.83,369.52Z" transform="translate(-22.09 -11)"/><path class="cls-2" d="M139,383.89c-33.91,0-80.62-.62-114.52,0-.64,0-.59.38-1-3.05-2.54-23.14-.86-33.26-.71-37.06,0-.87,0-.72.94-.73,61.89-.49,150.91,1.85,212.79,3.17,2.76.06,5.53-.15,8.28.05,11.14.79,18.8,8.73,18.39,18.93-.39,9.54-7.51,18.67-18.36,18.73-35.08.17-65.92-.19-101-.19A37.36,37.36,0,0,1,139,383.89Z" transform="translate(-22.09 -11)"/><path class="cls-2" d="M142.75,311.38c-37.43,0-64.9.48-102.33,0-14.34-.18-13.11-.12-12.85-1.32,1.95-9,6.68-25.68,10-33.66.61-1.46.44-1.26,2-1.25,65.81,0,157.64,0,223.45,0,12.83,0,22.14,7.1,22.62,17.13.52,10.85-8.53,18.4-22.42,18.42q-55.56.09-111.12,0C152.13,311.37,142.75,310.77,142.75,311.38Z" transform="translate(-22.09 -11)"/><path class="cls-3" d="M1425.2,639.73a69.81,69.81,0,0,1-36.85-7.15c-13.91-7-22-18.22-24-33.85-2.35-18.58,5.37-33.17,20.81-41.48,26.83-14.45,55.08-14.37,82.22-.17,15.15,7.93,21.92,21.53,21,39-1,17.84-11.7,28.56-26,36.45C1450.79,639,1437.94,640.72,1425.2,639.73Z" transform="translate(-22.09 -11)"/><path class="cls-2" d="M117,416.94c25.62,0,51.23-.07,76.85,0,12.88,0,20.43,6.69,20.44,17.58s-7.58,18-20.14,18.07c-46.89.15-103.3-.08-150.19.33-1,0-.77.21-1.76-2-7.45-16.83-10.51-27.77-11.38-31.79-.19-.89-.23-.84.29-.84,21.68,0,64.21-1.1,85.89-1.1Z" transform="translate(-22.09 -11)"/><path class="cls-3" d="M1268.33,639.81c-12.71.56-25.09-.74-36.67-6.5-1.73-.86-3.69-1.47-5.13-2.68-5.64-4.78-13.68-9.87-7.18-18.14,5.76-7.31,14.57-6,20.86,0,9.71,9.36,21,11.76,33.64,10.33a45.25,45.25,0,0,0,10.16-2.7,6.7,6.7,0,0,0,4.78-7.3c-.28-3.74-2.59-5.5-6-6.19-11.52-2.35-23-4.66-34.55-7-4.2-.86-8.54-1.42-12.52-2.93-9.44-3.57-17.76-8.23-18.38-20.24-.64-12.28,6.67-19.48,16.41-23.27,23.32-9.09,46.88-8.59,69.53,2.75,5.93,3,13.94,6.38,9.7,15.52-3.59,7.77-14.58,9.1-22.47,2.22a36.36,36.36,0,0,0-22.49-8.9c-7.91-.48-19.55-1.54-20.82,7.9-1.33,10,10.94,7.92,17.34,9.36,12.17,2.75,24.77,3.44,36.71,7.66,10.07,3.55,17.39,9.64,18.23,20.72.82,10.81-6.26,17.33-14.74,22.36C1293.49,639.43,1281,640.35,1268.33,639.81Z" transform="translate(-22.09 -11)"/><path class="cls-4" d="M1587.47,549.6h30.77c6.12,0,12.78.32,13.62,8,1,9.36-7.13,9.49-13,9.82-13,.72-26,.58-39,.41-6.26-.09-10.23.51-10.36,8.64s3.44,9,10,8.74c10.63-.36,21.3-.25,31.94,0,6.22.16,12.78,1.89,12.42,9.45-.34,6.89-6.65,7.75-12.51,7.74-10.65,0-21.32.36-32-.06-7-.28-10.39,1.8-9.66,9.28.42,4.3,0,8.67,0,13,0,10.35-5.59,15.33-15.44,15.08-9.53-.23-15.14-4.49-14.84-15.36.52-19.32.08-38.66.17-58,.06-12.43,4.3-16.47,17.15-16.75h30.77Z" transform="translate(-22.09 -11)"/><path class="cls-4" d="M1721.47,549.61q20.12,0,40.22,0c6.57,0,14,.77,14.36,8.7.47,9-7.68,9.56-14.37,10.33-8.1.93-18.86-3.63-23.75,2-5.13,5.9-1.4,16.58-1.64,25.16-.27,9.85-.09,19.71-.06,29.57s-5.38,14.49-14.71,14.35c-8.85-.13-15-3.5-14.78-14,.32-16.16-.2-32.33.2-48.49.16-6.78-2.19-9.07-8.84-8.64a103.49,103.49,0,0,1-20.07-.33c-5.44-.71-11.85-3-11.32-9.75.48-6.24,6.17-8.75,12.18-8.81,14.19-.15,28.39-.05,42.58-.05Z" transform="translate(-22.09 -11)"/><path class="cls-1" d="M988.72,411.63c.34,4.7.7,9.41,1,14.11,1.33,20.25.53,21.79-18.88,28.93A103.66,103.66,0,0,1,921,460.14c-13.27-1.73-24.68-6.59-29.34-20.1-5.12-14.8-2.73-28.82,8.17-40.55,10.06-10.83,23.42-15.25,37.43-18.37,14.27-3.19,28.7-4.23,43.26-4.64,6.27-.18,8.29,1.88,8,8-.42,9-.11,18.07-.11,27.11Z" transform="translate(-22.09 -11)"/><path class="cls-1" d="M615,396.55c-24.38-49.48,5.47-114.3,57.81-125a69.26,69.26,0,0,1,43.76,5.18c3.81,1.75,6.24,3.12,2.29,7.42q-51.45,56.06-102.72,112.27C616,396.61,615.42,396.51,615,396.55Z" transform="translate(-22.09 -11)"/><path class="cls-5" d="M1426.16,566.07c21.06,0,32.59,9.37,32.88,26.69.29,18.23-12.72,29.81-33.2,29.53-20.27-.28-32.16-11.08-32.28-29.32C1393.46,575.7,1405.13,566.07,1426.16,566.07Z" transform="translate(-22.09 -11)"/><path class="cls-1" d="M1174.59,360.56l2.26-293.38H1234V283H1309v54.8h-68.87c-10.35-1.62-3,.65-3,5.2.1,76.69,21.57,109.49,82.48,124.25v47.39c-46.2,0-91.85-34.58-108.59-54C1190.31,436.63,1177,387.1,1174.59,360.56Z" transform="translate(-22.09 -11)"/><path class="cls-1" d="M1495.86,514.67c-33.44-.62-63-14.92-87.75-40.42-60.93-62.93-53.94-174.61,14.41-228.7,49.94-39.51,119.29-35.85,164.69,9,8.66,8.55,21.56,17.31,23,27.35,1.36,9.39-13.17,17.88-20.92,26.54-38.91,43.46-77.83,86.91-117.24,129.91-7.53,8.21-4.89,10.77,3.74,13.65q34.18,11.41,64.39-7.93c5.57-3.58,10.4-8.39,15.33-12.91,7.17-6.57,12.62-20.15,20.46-19.28,7.39.82,13.57,13,20.2,20.3,17.13,18.81,17,18.7-.25,37.64C1569.69,498.65,1537.83,515,1495.86,514.67Z" transform="translate(-22.09 -11)"/><path class="cls-2" d="M1433.74,400.39c-24.39-49.49,5.46-114.31,57.8-125a69.3,69.3,0,0,1,43.77,5.18c3.8,1.75,6.23,3.12,2.28,7.42Q1486.16,344,1434.87,400.23C1434.67,400.44,1434.12,400.34,1433.74,400.39Z" transform="translate(-22.09 -11)"/><path class="cls-1" d="M1654.35,369.52c0-68.45,36.5-125.29,91.84-144.19,50.07-17.1,93.78-4.76,131.17,31.63,7.85,7.64,19.15,15.78,20.47,24.91,1.25,8.63-11.88,16.14-18.68,24.11-15.39,18-15.6,17.87-31.54.64-25.8-27.9-55-36.45-85.85-25.13-31.08,11.42-53.69,43.93-55.06,78.64-1.17,29.59,8,55,29.69,75.48a74.08,74.08,0,0,0,103.48-1.38c1.12-1.11,2.19-2.27,3.33-3.36,7.07-6.77,12.86-20.05,20.71-19.27,7.28.71,13.49,13,20,20.32,16.48,18.4,16.32,18.3,2.43,34.25-34.12,39.2-76.5,57.05-127.69,44.58-52.58-12.81-83.42-49.45-98.67-100.08C1655.69,396.3,1653.72,381.43,1654.35,369.52Z" transform="translate(-22.09 -11)"/></svg>