<svg id="Capa_1" data-name="Capa 1" xmlns="http://www.w3.org/2000/svg" width="176.39mm" height="70.56mm" viewBox="0 0 500 200">
  <g>
    <ellipse cx="152.24" cy="91.45" rx="152.24" ry="80.16" style="fill: #3c5e95"/>
    <g>
      <path d="M116.19,69.9l-3.53-.16A20.24,20.24,0,0,0,97.8,76.07a20.53,20.53,0,0,0-6.28,15A21.43,21.43,0,0,0,98,106.4q6.51,6.72,14.94,6.71l3.22-.15v17.16l-3.37.31q-17,0-28.74-10.9T72.36,92.2A38.34,38.34,0,0,1,83.93,64.33a37.63,37.63,0,0,1,27.81-11.75h4.45Z" style="fill: #fff"/>
      <path d="M156.64,107l-8.27-10.26,28-21.32a18,18,0,0,0-14.09-6.73,22.31,22.31,0,0,0-16.24,7q-7,7.05-7,16.09a22.53,22.53,0,0,0,21.91,21.92q11.49,0,19.77-11.19l14.41,8.27-4.9,7.21q-1.23,1.68-8.36,7t-20.76,5.36q-16.71,0-27.74-11t-11-27.66q0-16.86,11.11-28.2t28.12-11.34q12,0,19.23,5t10,8.28A55.51,55.51,0,0,1,197,76.33Z" style="fill: #fff"/>
      <path d="M241.24,130.58q-16.41,0-27.74-11.11T202.16,91.81a39.78,39.78,0,0,1,40.15-40.15q16.86,0,27.74,11.65t10.88,30.34V129.2H263V94.26q0-11.34-5.83-18.16T241.7,69.28a20.28,20.28,0,0,0-15,6.42,21.63,21.63,0,0,0,.38,30.85A22.88,22.88,0,0,0,243.54,113a26.79,26.79,0,0,0,5.67-.51,31.21,31.21,0,0,0,6.74-2.86v18.08a48,48,0,0,1-8.28,2.3Z" style="fill: #fff"/>
    </g>
    <g>
      <path d="M342.22,139q-12.42,0-20.38-7.79t-8-20.62V25.26l17.78,13.61V63.43h14.09V79.82H331.65v31a11.82,11.82,0,0,0,3.37,8.74,12,12,0,0,0,8.89,3.37h1.83V139Z" style="fill: #3c5e95"/>
      <path d="M383,116.45l-8.27-10.26,28-21.32a18,18,0,0,0-14.09-6.73,22.29,22.29,0,0,0-16.24,7q-7.05,7.05-7.05,16.09a22.53,22.53,0,0,0,21.91,21.91q11.49,0,19.76-11.18l14.42,8.27-4.91,7.2q-1.23,1.7-8.35,7t-20.76,5.37q-16.71,0-27.74-11t-11-27.66q0-16.86,11.11-28.2t28.13-11.34q11.94,0,19.23,5t10,8.28a55.72,55.72,0,0,1,6.21,10.8Z" style="fill: #3c5e95"/>
      <path d="M472.33,79.36l-3.53-.15a20.26,20.26,0,0,0-14.87,6.33,20.57,20.57,0,0,0-6.28,15,21.44,21.44,0,0,0,6.52,15.36q6.51,6.7,14.94,6.71l3.22-.15v17.16l-3.38.31q-17,0-28.73-10.9T428.5,101.66a38.36,38.36,0,0,1,11.57-27.87,37.62,37.62,0,0,1,27.81-11.74h4.45Z" style="fill: #3c5e95"/>
    </g>
    <g>
      <path d="M336.24,174.76l.9.36h.68a3.89,3.89,0,0,0,2.5-.81,2.48,2.48,0,0,0,1-2,3.9,3.9,0,0,0-.18-1q-.18-.63-.27-.9a4.94,4.94,0,0,0-.27-.63l-3.2-6.48a7.54,7.54,0,0,1-.83-3.46,6.42,6.42,0,0,1,2.15-5,7.73,7.73,0,0,1,5.45-2l1.29.11,1,.18v4.36l-1.29-.18a4.71,4.71,0,0,0-2.63.75,2.29,2.29,0,0,0-1.05,1.91,4.81,4.81,0,0,0,.2,1.25,7,7,0,0,0,.56,1.38l3.1,6.37a9.69,9.69,0,0,1,1.11,4.11,5.73,5.73,0,0,1-2.18,4.55,8.24,8.24,0,0,1-5.56,1.85,11.26,11.26,0,0,1-2.48-.35Z" style="fill: #f39200"/>
      <path d="M375.84,152.37a13.2,13.2,0,0,1,9.65,3.88,13,13,0,0,1,3.92,9.63,13.25,13.25,0,0,1-3.91,9.71,12.94,12.94,0,0,1-9.59,4,13.14,13.14,0,0,1-9.67-4,13.34,13.34,0,0,1-4-9.76,12.92,12.92,0,0,1,3.9-9.55A13.24,13.24,0,0,1,375.84,152.37ZM367,166a9.05,9.05,0,0,0,2.59,6.46,8.66,8.66,0,0,0,12.6,0,9.63,9.63,0,0,0,0-13.11,8.19,8.19,0,0,0-6.19-2.7,8.58,8.58,0,0,0-6.37,2.75A9.08,9.08,0,0,0,367,166Z" style="fill: #f39200"/>
      <path d="M405.93,159.71a6.48,6.48,0,0,1,1.86-4.71,6.15,6.15,0,0,1,4.62-1.91h4.76v4h-3.53a2.93,2.93,0,0,0-2.16.86,3,3,0,0,0-.87,2.23v4.07h6.56v4.14h-6.56V179h-4.68Z" style="fill: #f39200"/>
      <path d="M431.6,153.09h16.06v4H442V179h-4.68V157.12H431.6Z" style="fill: #f39200"/>
    </g>
    <g>
      <path d="M63.08,91.45a5.78,5.78,0,0,0-5.78-5.79H.38a42,42,0,0,0,0,11.57H57.3A5.78,5.78,0,0,0,63.08,91.45Z" style="fill: #fff"/>
      <path d="M74,65.36a5.79,5.79,0,0,0-5.78-5.79H12.5A60.31,60.31,0,0,0,4.91,71.15H68.2A5.78,5.78,0,0,0,74,65.36Z" style="fill: #fff"/>
      <path d="M53.05,117.53a5.78,5.78,0,0,0-5.79-5.78H4.91a60.25,60.25,0,0,0,7.59,11.57H47.26A5.79,5.79,0,0,0,53.05,117.53Z" style="fill: #fff"/>
    </g>
  </g>
</svg>
